<?xml version="1.0" standalone="no"?>
<!DOCTYPE svg PUBLIC "-//W3C//DTD SVG 20010904//EN"
 "http://www.w3.org/TR/2001/REC-SVG-20010904/DTD/svg10.dtd">
<svg version="1.0" xmlns="http://www.w3.org/2000/svg"
 width="1772.000000pt" height="381.000000pt" viewBox="0 0 1772.000000 381.000000"
 preserveAspectRatio="xMidYMid meet">

<g transform="translate(0.000000,381.000000) scale(0.100000,-0.100000)"
fill="#000000" stroke="none">
<path d="M4222 1913 l3 -428 85 0 85 0 3 161 2 162 148 4 c132 3 152 6 196 28
61 31 102 80 121 144 41 138 -12 278 -125 330 -41 19 -68 21 -283 24 l-237 4
2 -429z m422 259 c42 -24 58 -58 53 -111 -9 -82 -63 -110 -214 -111 l-83 0 0
127 0 126 107 -6 c75 -5 115 -12 137 -25z"/>
<path d="M4960 2270 l0 -69 125 -3 126 -3 2 -355 2 -355 88 -3 87 -3 0 361 0
360 125 0 125 0 0 70 0 70 -340 0 -340 0 0 -70z"/>
<path d="M6290 1910 l0 -432 218 4 c195 4 223 7 276 28 101 39 170 122 202
244 29 107 15 294 -29 398 -24 56 -101 133 -160 159 -48 22 -67 24 -279 27
l-228 4 0 -432z m425 266 c86 -36 128 -174 105 -349 -20 -159 -68 -197 -248
-197 l-112 0 0 287 0 286 111 -7 c61 -3 126 -13 144 -20z"/>
<path d="M7070 2335 c0 -3 160 -686 195 -832 5 -22 10 -23 100 -23 l94 0 9 33
c4 17 42 159 83 314 41 156 76 283 79 283 3 0 38 -127 79 -283 41 -155 78
-297 83 -315 l9 -33 92 3 91 3 97 400 c54 220 100 413 103 428 l6 28 -87 -3
-87 -3 -61 -280 c-34 -154 -64 -286 -66 -293 -2 -7 -37 120 -78 283 l-73 295
-104 0 -103 0 -9 -32 c-5 -18 -40 -149 -77 -291 -43 -159 -71 -252 -75 -240
-4 10 -33 141 -65 291 l-59 272 -88 0 c-48 0 -88 -2 -88 -5z"/>
<path d="M8280 1910 l0 -430 85 0 85 0 0 430 0 430 -85 0 -85 0 0 -430z"/>
<path d="M8620 2336 c0 -3 0 -196 0 -428 l0 -423 217 1 c199 1 223 3 274 22
146 57 219 192 219 402 0 202 -71 341 -205 402 -46 21 -66 23 -277 26 -126 2
-228 1 -228 -2z m430 -165 c40 -20 75 -67 90 -120 15 -55 12 -240 -5 -297 -16
-53 -53 -96 -98 -113 -16 -6 -78 -11 -138 -11 l-109 0 0 287 0 286 113 -7 c77
-5 123 -12 147 -25z"/>
<path d="M9563 1922 c-90 -231 -163 -424 -163 -431 0 -8 25 -11 87 -9 l88 3
36 95 37 95 172 0 172 0 37 -95 36 -95 94 -3 c85 -3 92 -1 87 15 -3 10 -80
203 -170 428 l-164 410 -93 3 -94 2 -162 -418z m316 53 c28 -77 51 -143 51
-147 0 -5 -52 -8 -116 -8 -107 0 -116 1 -109 18 18 47 105 287 105 291 0 20
25 -35 69 -154z"/>
<path d="M10938 2006 l-3 -334 -24 -26 c-20 -21 -34 -26 -70 -26 -25 0 -54 7
-63 14 -21 16 -48 77 -48 109 0 23 0 23 -81 13 l-81 -9 5 -57 c8 -91 47 -153
122 -193 33 -18 57 -22 140 -22 110 0 154 15 206 72 64 68 64 65 67 446 l3
347 -85 0 -85 0 -3 -334z"/>
<path d="M11383 1921 c-90 -230 -163 -423 -163 -430 0 -8 25 -11 87 -9 l88 3
36 95 35 95 173 0 173 0 37 -95 36 -95 93 -3 c50 -1 92 0 92 3 0 4 -75 192
-166 418 -91 227 -168 418 -171 425 -4 8 -33 12 -97 12 l-91 0 -162 -419z
m316 54 c28 -77 51 -143 51 -147 0 -5 -52 -8 -116 -8 -89 0 -115 3 -111 13 2
6 28 76 57 155 29 79 56 140 60 135 4 -4 30 -71 59 -148z"/>
<path d="M11970 2336 c0 -2 70 -114 155 -248 l155 -243 0 -182 0 -183 85 0 85
0 0 178 0 179 151 239 c83 131 154 245 156 252 4 10 -16 12 -93 10 l-98 -3
-93 -160 c-51 -88 -96 -161 -101 -162 -4 -1 -51 72 -105 162 l-98 165 -99 0
c-55 0 -100 -2 -100 -4z"/>
<path d="M12981 2318 c-5 -13 -79 -203 -165 -424 -86 -220 -156 -404 -156
-407 0 -4 40 -7 89 -7 l90 0 21 58 c11 31 28 76 37 100 l16 42 171 0 171 0 38
-100 38 -100 90 0 c65 0 89 3 89 13 -1 6 -76 199 -168 427 l-167 415 -93 3
c-88 3 -93 2 -101 -20z m159 -335 c30 -81 57 -151 58 -155 2 -4 -48 -8 -112
-8 -64 0 -116 3 -116 8 -1 13 105 302 110 302 3 0 30 -66 60 -147z"/>
<path d="M13840 2270 l0 -70 125 0 125 0 0 -360 0 -360 85 0 85 0 2 358 3 357
128 3 127 3 0 69 0 70 -340 0 -340 0 0 -70z"/>
<path d="M14627 1933 c-87 -225 -160 -418 -164 -430 -5 -23 -4 -23 80 -23 56
0 88 4 93 12 4 7 22 50 39 97 l32 86 173 0 172 0 37 -95 36 -95 94 -3 c85 -3
92 -1 87 15 -3 10 -80 203 -170 428 l-164 410 -93 3 -94 3 -158 -408z m312 42
c28 -77 51 -143 51 -147 0 -5 -52 -8 -116 -8 -107 0 -116 1 -109 18 18 47 105
287 105 291 0 20 25 -35 69 -154z"/>
<path d="M15402 1913 l3 -428 78 -3 77 -3 1 333 c0 198 4 325 9 313 5 -11 43
-161 85 -332 l77 -313 83 0 83 0 83 333 84 332 3 -332 2 -333 80 0 80 0 0 430
0 431 -131 -3 -132 -3 -69 -270 c-38 -148 -72 -277 -75 -285 -7 -21 -5 -29
-88 285 l-71 270 -132 3 -132 3 2 -428z"/>
<path d="M16641 2318 c-135 -345 -315 -807 -318 -820 -5 -16 4 -18 84 -18 l90
0 16 43 c9 23 26 68 37 100 l21 57 173 0 172 0 36 -97 36 -98 91 -3 c50 -1 91
1 91 5 0 5 -76 197 -168 428 l-168 420 -92 3 c-88 3 -93 2 -101 -20z m159
-335 c30 -81 57 -151 58 -155 2 -4 -48 -8 -112 -8 -82 0 -116 3 -116 12 0 16
104 298 110 298 3 0 30 -66 60 -147z"/>
<path d="M5620 1565 l0 -85 80 0 80 0 0 85 0 85 -80 0 -80 0 0 -85z"/>
</g>
</svg>
